<?xml version="1.0" encoding="utf-8"?>
<!-- Generator: Adobe Illustrator 26.0.0, SVG Export Plug-In . SVG Version: 6.00 Build 0)  -->
<svg version="1.1" id="Layer_1" xmlns="http://www.w3.org/2000/svg" xmlns:xlink="http://www.w3.org/1999/xlink" x="0px" y="0px"
	 viewBox="0 0 94.1 60" style="enable-background:new 0 0 94.1 60;" xml:space="preserve">
<style type="text/css">
	.st0{fill:#3A0CA3;}
	.st1{fill:url(#SVGID_1_);}
	.st2{fill:none;}
	.st3{fill:url(#SVGID_00000052810223468822922500000004681933950991104404_);}
	.st4{fill:#F72585;}
</style>
<g>
	<path class="st0" d="M91.3,19.4v38.2h-4.8c-6.4,0-11.6-5.2-11.6-11.6V19.4c1.9,2.5,4.9,4,8.2,4C86.4,23.4,89.4,21.8,91.3,19.4z"/>
	<linearGradient id="SVGID_1_" gradientUnits="userSpaceOnUse" x1="41.7498" y1="27.9324" x2="63.748" y2="43.3999">
		<stop  offset="0" style="stop-color:#3A0CA3"/>
		<stop  offset="0.4958" style="stop-color:#630AAD"/>
		<stop  offset="1" style="stop-color:#8909B7"/>
	</linearGradient>
	<path class="st1" d="M81.2,29.5c0,8.4-2.7,15.2-8.1,20.5c-0.1,0.1-0.1,0.1-0.2,0.2c-5.4,5.1-12.3,7.8-20.6,7.8c-1,0-14.2,0-18.6,0
		l5.3-12.2c1.1-2.6,3.6-4.2,6.4-4.2h4.5c9.5,0,14.4-4,14.4-12.1c0-7.3-4.4-11.1-13.3-11.3c-0.3,0-0.5,0-0.8,0h-1.5
		c-3.1,0-4.5,2.9-4.6,3.2l0,0l0,0.1L28.3,58h-1.2l-1-2.3l2.2-5V18.2l0.1,0.5l4.2-12.3c0,0,0,0,0-0.1c0.8-2.4,3.1-4,5.6-4h11.5
		c0.9,0,1.7,0,2.6,0.1c2,0.1,3.9,0.3,5.7,0.6c2,0.3,3.9,0.8,5.6,1.4l0,0c3.1,1.1,5.9,2.5,8.2,4.4c0.5,0.4,0.9,0.8,1.4,1.2
		c-0.3,1-0.5,2-0.5,3.1c0,0.8,0.1,1.5,0.3,2.3c0.8,3.9,3.8,6.9,7.7,7.9C81,25.1,81.2,27.3,81.2,29.5z"/>
	<polyline class="st2" points="11.9,58 27.1,58 28.3,58 45,58 	"/>
	
		<linearGradient id="SVGID_00000179637333116005212890000016484467075493817998_" gradientUnits="userSpaceOnUse" x1="46.8689" y1="29.6334" x2="6.9968" y2="29.6334">
		<stop  offset="0" style="stop-color:#25E5F0"/>
		<stop  offset="1" style="stop-color:#2D61FF"/>
	</linearGradient>
	<path style="fill:url(#SVGID_00000179637333116005212890000016484467075493817998_);" d="M62.2,3.8c0,0-3-0.5-6.3,0
		c-3.1,0.4-7.2,2.9-9.1,7.4l-2.9,6.7L33.7,41.3l-1.4,3.3l-5.5,12.7l0,0.1l-0.1-0.2l-0.3-0.6L2.8,1.9h19.1l4.9,15.9l0.1,0.5L31.1,6
		c0,0,0,0,0-0.1c0.8-2.4,3.1-4,5.6-4h11.5c0.9,0,1.7,0,2.6,0.1c2,0.1,3.9,0.3,5.7,0.6C58.5,2.9,60.4,3.2,62.2,3.8L62.2,3.8z"/>
	<circle class="st4" cx="83.1" cy="13" r="8.2"/>
</g>
</svg>
