<?xml version="1.0" encoding="utf-8"?>
<!-- Generator: Adobe Illustrator 26.0.0, SVG Export Plug-In . SVG Version: 6.00 Build 0)  -->
<svg version="1.1" id="Layer_1" xmlns="http://www.w3.org/2000/svg" xmlns:xlink="http://www.w3.org/1999/xlink" x="0px" y="0px"
	 viewBox="0 0 496.2 221.9" style="enable-background:new 0 0 496.2 221.9;" xml:space="preserve">
<style type="text/css">
	.st0{fill:#231F20;}
	.st1{fill:#E01B22;}
</style>
<g>
	<g>
		<g>
			<path class="st0" d="M161.2,167.1H144V47.4h27.8c7.8,0,13.8,0.4,17.9,1.2c4.1,0.8,7.7,2,10.7,3.8c5,2.9,9,7.1,11.9,12.4
				c3,5.4,4.4,11.2,4.4,17.5c0,11.1-3.7,20-11.3,26.6c-7.5,6.6-17.7,9.9-30.5,9.9h-13.7V167.1z M161.2,102.9h12.6
				c8.9,0,15.4-1.6,19.4-4.7c4-3.1,6-8.1,6-14.9c0-6.8-2-11.8-6.1-15.1s-10.3-4.9-18.7-4.9h-13.2V102.9z"/>
			<path class="st0" d="M231.4,167.1V47.4h16.2v119.7L231.4,167.1L231.4,167.1z"/>
			<path class="st0" d="M280.8,128c1.4,7.5,4.8,13.7,10.2,18.3c5.4,4.7,11.9,7,19.4,7c5.3,0,10.2-1.3,14.6-3.9s7.9-6.2,10.5-11h18.3
				c-4.1,10-10,17.7-17.4,23c-7.5,5.3-16.2,8-26.1,8c-6.7,0-12.8-1.2-18.3-3.5c-5.5-2.4-10.5-5.9-15-10.6c-4.2-4.4-7.5-9.6-9.9-15.5
				s-3.6-11.9-3.6-18c0-6.3,1.1-12.3,3.2-17.8c2.2-5.5,5.4-10.6,9.6-15.1c4.5-4.9,9.5-8.7,15.2-11.2c5.6-2.5,11.8-3.7,18.5-3.7
				c7.9,0,15.3,1.9,22.1,5.6c6.8,3.7,12.5,8.9,16.9,15.5c2.6,4.1,4.6,8.6,5.8,13.5c1.3,4.9,1.9,10.5,1.9,16.8v2.5h-75.9V128z
				 M339,113.4c-2-7.5-5.5-13.2-10.5-17.3s-10.9-6.2-17.9-6.2c-7.1,0-13.3,2.1-18.5,6.3s-8.8,9.9-10.8,17.2H339z"/>
			<path class="st0" d="M422.1,167.1l-20.9-34.2l-21.9,34.2h-18l30.6-46.9l-27.1-43.4H383l18.8,30.9l19.3-30.9H440l-28.7,42.9
				l28.9,47.4H422.1z"/>
		</g>
		<g>
			<g>
				<g>
					<path class="st0" d="M51.2,155.5c-5.6-0.4-9.2-2.8-11-6.5l0,0c-1.8-3.7-0.2-8.4,4.6-14.4l0,0c2.8-3.4,7.3-7.7,13.5-12.9l0,0
						c-9.8-0.1-18.6-2.2-26.3-6.5l0,0c-8-4.5-13.9-10.7-17.7-18.5l0,0c-5.9-12.2-5.4-23.6,1.4-34.3l0,0c6.1-9.9,16.1-17.5,30.2-22.9
						l0,0c7.5-2.8,14.9-4.5,22.2-5l0,0c6.5-0.5,12.1-0.2,16.9,1l0,0c1.6-4.5,3.9-8.4,7-11.7l0,0c3.1-3.1,6.6-5.5,10.5-6.9l0,0
						c2.8-1.1,5.7-1.4,8.8-1l0,0c3.2,0.3,5.5,1.7,6.9,3.9l0,0c1.4,2.3,1.7,4.5,1.1,6.7l0,0c-0.4,2.3-1.9,4-4.5,5l0,0
						c-1.6,0.6-3.3,0.9-5,0.9l0,0c-1.1,0-2.6,0-4.6-0.1l0,0c-3-0.3-5.2-0.3-6.6,0.1l0,0c-2.4,0.7-4.4,2.6-5.9,5.5l0,0
						c4.7,2.1,9.1,4.8,13.1,8l0,0c4,3.4,7.3,7.1,9.7,11.4l0,0c6.6,11.3,6.9,22.6,0.9,33.8l0,0c-5.6,10.8-15.4,19.1-29.4,24.8l0,0
						c-3.2,1.3-6,2.3-8.3,2.8l0,0c-3.6,1.1-7.4,1.9-11.5,2.6l0,0c-4,2.7-7,5.2-9,7.7l0,0c-2.1,2.7-2.8,4.9-2,6.4l0,0
						c0.9,1.9,2.4,3.3,4.2,4.2l0,0c2.6,1,6.6,1,12.1,0.1l0,0c6.2-1.3,12.8-2.7,19.8-4.1l0,0c4.1-1.1,10.5-2.6,19.1-4.5l0,0l15.8-3.8
						l0,0c12.4-2.9,22.7-3.6,31.1-2.1l0,0c9.9,1.7,17.2,6.5,21.9,14.5l0,0c6.3,10.7,4.4,21.5-6.1,32.6l0,0
						c-8.8,9.6-17.7,16.5-37.4,26.6l0,0c-46.1,23.5-83.7,9.9-88.3,0.3l0,0c0,0,28,20.6,83.8-7.1l0,0c12.3-6.1,21.7-13.4,28.4-21.3
						l0,0c7-7.9,9-14.5,6.1-19.5l0,0c-2.7-4.7-7.3-7.7-13.7-9l0,0c-6.8-1.6-15.5-1.2-26,1.1l0,0l-31.8,7l0,0
						C95,150.5,66.6,156.7,51.2,155.5z M30.1,64.3c-2.2,7.9-1.2,16.2,3.3,25.1l0,0c4.5,9,11,15.5,19.5,19.6l0,0
						c9.8,4.8,20,5,30.4,0.8l0,0c10-4.1,16.1-10.9,18.3-20.4l0,0c1.9-8.3,0.5-16.7-4.3-25.2l0,0C92.5,55.7,85.9,49.7,77.5,46l0,0
						c-9.5-4.2-19-4.4-28.6-0.7l0,0C38.9,49.1,32.6,55.4,30.1,64.3z"/>
				</g>
			</g>
			<g>
				<g>
					<path class="st1" d="M53.8,149.8c-5.6-0.4-9.3-2.8-11-6.5l0,0c-1.8-3.7-0.2-8.5,4.6-14.4l0,0c2.8-3.4,7.3-7.7,13.5-12.9l0,0
						c-9.8-0.1-18.6-2.2-26.3-6.5l0,0c-8-4.5-13.9-10.7-17.7-18.5l0,0c-5.9-12.1-5.4-23.5,1.4-34.3l0,0c6.1-9.9,16.1-17.6,30.2-22.9
						l0,0c7.4-2.8,14.8-4.5,22.2-5l0,0c6.5-0.5,12.1-0.2,16.9,1l0,0c1.6-4.5,3.9-8.4,7-11.7l0,0c3.1-3.2,6.6-5.5,10.5-7l0,0
						c2.8-1.1,5.7-1.4,8.8-1l0,0c3.2,0.4,5.5,1.7,6.8,3.9l0,0c1.4,2.3,1.8,4.5,1.1,6.7l0,0c-0.4,2.3-1.9,3.9-4.5,5l0,0
						c-1.6,0.6-3.3,0.9-5,0.8l0,0c-1.1,0.1-2.6,0-4.6-0.1l0,0c-3-0.3-5.2-0.2-6.7,0.1l0,0c-2.4,0.7-4.3,2.6-5.9,5.5l0,0
						c4.7,2.1,9.1,4.8,13.1,8l0,0c4,3.4,7.3,7.2,9.7,11.4l0,0c6.6,11.3,6.9,22.6,0.9,33.8l0,0c-5.6,10.8-15.4,19.1-29.4,24.8l0,0
						c-3.2,1.3-6,2.2-8.3,2.8l0,0c-3.6,1.1-7.5,1.9-11.5,2.6l0,0c-4,2.6-7,5.2-9,7.7l0,0c-2.1,2.8-2.8,4.9-2,6.5l0,0
						c1,1.9,2.4,3.3,4.3,4.2l0,0c2.6,1,6.7,1,12.1,0.1l0,0c6.2-1.3,12.8-2.7,19.8-4.1l0,0c4.1-1.1,10.5-2.6,19.1-4.5l0,0l15.8-3.8
						l0,0c12.4-2.9,22.7-3.6,31-2.1l0,0c9.9,1.7,17.2,6.5,21.9,14.5l0,0c6.3,10.7,4.4,21.5-6,32.6l0,0c-8.8,9.6-17.7,16.5-37.4,26.6
						l0,0c-46,23.5-83.7,9.9-88.3,0.3l0,0c0,0,28,20.6,83.8-7.1l0,0c12.3-6.1,21.7-13.4,28.4-21.3l0,0c7-7.9,9-14.4,6.1-19.5l0,0
						c-2.7-4.7-7.3-7.7-13.7-9l0,0c-6.8-1.6-15.5-1.2-26,1.1l0,0l-31.8,7l0,0C97.6,144.8,69.2,151,53.8,149.8z M32.8,58.6
						c-2.2,7.9-1.2,16.2,3.3,25.1l0,0c4.5,9,11,15.5,19.5,19.6l0,0c9.8,4.8,20,5,30.4,0.8l0,0c10-4.1,16.1-10.9,18.3-20.4l0,0
						c1.9-8.3,0.4-16.7-4.3-25.2l0,0C95.2,50,88.6,44,80.2,40.3l0,0c-9.5-4.1-19-4.4-28.6-0.7l0,0C41.6,43.4,35.3,49.7,32.8,58.6z"
						/>
				</g>
			</g>
		</g>
	</g>
	<g>
		<g>
			<path class="st0" d="M459.5,62.6V41.2h9.5c1.9,0,3.4,0.2,4.4,0.6c1,0.4,1.8,1.1,2.4,2c0.6,1,0.9,2.1,0.9,3.2
				c0,1.5-0.5,2.8-1.5,3.8s-2.5,1.7-4.6,2c0.8,0.4,1.3,0.7,1.7,1.1c0.8,0.8,1.6,1.7,2.4,2.8l3.7,5.8h-3.5l-2.8-4.4
				c-0.8-1.3-1.5-2.3-2-2.9c-0.5-0.7-1-1.2-1.4-1.4c-0.4-0.3-0.9-0.5-1.3-0.6c-0.3-0.1-0.8-0.1-1.6-0.1h-3.3v9.5L459.5,62.6
				L459.5,62.6z M462.3,50.7h6.1c1.3,0,2.3-0.1,3-0.4c0.7-0.3,1.3-0.7,1.7-1.3c0.4-0.6,0.6-1.2,0.6-1.9c0-1-0.4-1.8-1.1-2.5
				c-0.7-0.6-1.9-1-3.5-1h-6.8L462.3,50.7L462.3,50.7z"/>
		</g>
		<path class="st0" d="M451.7,51.9c0,9.5,7.7,17.2,17.2,17.2s17.2-7.7,17.2-17.2s-7.7-17.2-17.2-17.2S451.7,42.4,451.7,51.9z
			 M452.8,51.9c0-8.9,7.2-16.1,16.1-16.1S485,43,485,51.9c0,8.9-7.2,16.1-16.1,16.1C460,68,452.8,60.8,452.8,51.9z"/>
	</g>
</g>
</svg>
