<svg width="229" height="110" viewBox="0 0 229 110" fill="none" xmlns="http://www.w3.org/2000/svg">
<g clip-path="url(#clip0_612_227)">
<path d="M72.4157 68.3909H67.1047V31.5004H75.6792C77.5203 31.463 79.3612 31.5801 81.1827 31.8505C82.3464 32.0502 83.4658 32.4531 84.49 33.0408C86.041 33.9572 87.3095 35.2836 88.156 36.8742C89.0674 38.5306 89.5403 40.3925 89.5297 42.2831C89.5932 43.8218 89.3119 45.3553 88.7064 46.7712C88.1008 48.1872 87.1863 49.4497 86.0299 50.4664C83.6967 52.4969 80.5673 53.5121 76.6417 53.5121H72.3895L72.4157 68.3909ZM72.4157 48.6197H76.2917C79.0391 48.6197 81.0252 48.1383 82.2676 47.1668C83.5101 46.1953 84.1313 44.6812 84.1313 42.5807C84.1999 41.711 84.0647 40.8373 83.7367 40.029C83.4086 39.2208 82.8966 38.5002 82.2414 37.9245C80.9873 36.9092 79.0624 36.4016 76.4667 36.4016H72.4157V48.6197Z" fill="#212529"/>
<path d="M94.0356 68.3908V31.5004H99.0316V68.3908H94.0356Z" fill="#212529"/>
<path d="M109.251 56.3653C109.597 58.5621 110.71 60.5652 112.392 62.0193C114.046 63.4519 116.172 64.2219 118.359 64.181C119.942 64.1964 121.499 63.782 122.865 62.982C124.231 62.1707 125.35 61.0028 126.103 59.6037H131.746C130.67 62.4347 128.806 64.898 126.374 66.7017C124.028 68.3583 121.213 69.2202 118.342 69.161C116.406 69.1868 114.486 68.8175 112.698 68.0758C110.948 67.3159 109.373 66.2048 108.07 64.8112C106.756 63.4299 105.722 61.8071 105.025 60.0325C104.3 58.2723 103.926 56.3874 103.923 54.4836C103.908 52.6051 104.246 50.7407 104.92 48.9873C105.6 47.2607 106.604 45.6802 107.877 44.3311C109.178 42.874 110.77 41.7053 112.55 40.9002C114.354 40.1249 116.3 39.7344 118.263 39.7537C120.643 39.7525 122.985 40.3547 125.07 41.5041C127.191 42.634 128.996 44.2767 130.32 46.2828C131.143 47.5642 131.752 48.9714 132.122 50.4489C132.535 52.1443 132.732 53.8852 132.708 55.6301V56.4091L109.251 56.3653ZM127.179 51.8755C126.692 49.8005 125.558 47.934 123.941 46.5454C122.39 45.2743 120.434 44.6006 118.429 44.6461C116.361 44.6035 114.344 45.2915 112.733 46.5892C111.088 47.935 109.921 49.7771 109.409 51.8405L127.179 51.8755Z" fill="#212529"/>
<path d="M152.797 68.3908L146.358 57.8882L139.621 68.3908H134.065L143.514 53.941L135.167 40.5589H140.784L146.594 50.09L152.526 40.5589H158.345L149.481 53.7397L158.406 68.3646L152.797 68.3908Z" fill="#212529"/>
<path d="M203.895 70.5964H72.5295V71.2966H203.895V70.5964Z" fill="#212529"/>
<path d="M38.52 64.8199C37.8252 64.8277 37.1414 64.645 36.543 64.2917C35.9446 63.9384 35.4542 63.4279 35.1252 62.8157C34.5827 61.6896 35.0611 60.2309 36.5601 58.4396C37.8281 56.994 39.225 55.6669 40.7337 54.4749C37.9087 54.5027 35.1233 53.8098 32.6404 52.4618C30.2538 51.1778 28.3315 49.1753 27.1457 46.7379C25.3258 42.992 25.4832 39.4736 27.5656 36.174C29.438 33.1107 32.5353 30.7739 36.8664 29.1197C39.0558 28.2722 41.3585 27.7531 43.6997 27.5793C45.4399 27.404 47.1968 27.5044 48.9057 27.8769C49.3635 26.5404 50.0968 25.3149 51.0581 24.2798C51.9644 23.3394 53.0667 22.6103 54.2867 22.1443C55.1466 21.8119 56.0769 21.7034 56.9902 21.8292C57.4138 21.8465 57.8269 21.9663 58.1941 22.1781C58.5613 22.39 58.8717 22.6877 59.0989 23.0457C59.3004 23.3455 59.4351 23.685 59.494 24.0413C59.5529 24.3977 59.5345 24.7626 59.4401 25.1112C59.3736 25.4717 59.2084 25.8066 58.9628 26.0786C58.7171 26.3506 58.4007 26.549 58.0489 26.6516C57.5541 26.8376 57.0288 26.9296 56.5003 26.9229C56.1678 26.9229 55.6953 26.9229 55.0653 26.9229C54.3908 26.8058 53.7012 26.8058 53.0267 26.9229C52.6243 27.07 52.2553 27.296 51.9413 27.5875C51.6273 27.8791 51.3746 28.2304 51.1981 28.6209C52.6369 29.2711 53.9914 30.094 55.2316 31.0715C56.4297 32.0531 57.4456 33.2381 58.2327 34.5723C59.228 36.1183 59.7796 37.9081 59.8274 39.7463C59.8752 41.5845 59.4174 43.4005 58.5039 44.9962C56.754 48.3133 53.7617 50.8777 49.4482 52.6456C48.6249 53.0067 47.7733 53.2995 46.9021 53.5208C45.7366 53.8635 44.55 54.1296 43.3498 54.3173C42.3078 54.9663 41.3673 55.7655 40.5587 56.6891C39.9112 57.5644 39.6837 58.1945 39.9462 58.6671C40.2169 59.2375 40.6779 59.6956 41.2499 59.9624C42.469 60.2801 43.7492 60.2801 44.9684 59.9624L51.0931 58.6934C52.3705 58.3695 54.3304 57.897 56.9728 57.3106L61.8462 56.1377C64.961 55.2814 68.2157 55.0582 71.4182 55.4813C72.8075 55.6643 74.1371 56.1613 75.3059 56.9347C76.4747 57.7081 77.4521 58.7376 78.164 59.945C80.1064 63.2358 79.5115 66.5791 76.3004 69.9837C73.588 72.9595 70.8407 75.0687 64.7773 78.1758C50.5769 85.4401 38.9837 81.2303 37.5751 78.2633C37.5751 78.2633 46.1933 84.6174 63.3861 76.084C66.7172 74.5155 69.6941 72.2851 72.1356 69.5286C74.2967 67.0867 74.9092 65.0737 74.008 63.5246C73.5532 62.7814 72.9404 62.1476 72.213 61.6681C71.4856 61.1886 70.6616 60.8752 69.7995 60.7502C67.1377 60.2762 64.404 60.3958 61.7937 61.1002L52.003 63.2708C52.003 63.2708 43.2448 65.205 38.52 64.8199ZM32.0454 36.7079C31.3728 39.3184 31.7366 42.0879 33.0603 44.4361C34.3175 47.0733 36.4385 49.2011 39.0712 50.4663C40.5189 51.1947 42.1093 51.5942 43.7292 51.6366C45.349 51.679 46.9583 51.363 48.442 50.7114C49.8358 50.2233 51.0833 49.3904 52.0686 48.29C53.0538 47.1897 53.7446 45.8579 54.0767 44.4186C54.6495 41.7561 54.1731 38.9752 52.7467 36.6554C51.3935 34.1541 49.2353 32.1834 46.6221 31.0628C45.2471 30.4289 43.7572 30.0825 42.2436 30.0449C40.7301 30.0072 39.2248 30.2792 37.8201 30.844C34.7227 32.0255 32.7891 33.9684 32.0191 36.7079H32.0454Z" fill="#212529"/>
<path d="M39.3076 63.0608C38.6127 63.0681 37.9289 62.8863 37.3294 62.5348C36.7298 62.1833 36.2371 61.6753 35.904 61.0653C35.3615 59.9275 35.834 58.4396 37.3389 56.6279C38.6115 55.1868 40.008 53.8601 41.5124 52.6632C38.6882 52.6937 35.9029 52.0038 33.4191 50.6589C31.0564 49.3698 29.1518 47.379 27.9682 44.9612C26.1483 41.2153 26.3057 37.6969 28.3881 34.3974C30.2693 31.3341 33.3579 28.9885 37.6976 27.3343C39.8863 26.4858 42.1896 25.9695 44.531 25.8027C46.2859 25.6174 48.0592 25.7209 49.7807 26.109C50.2292 24.7675 50.9602 23.5379 51.9243 22.5031C52.8359 21.5629 53.9404 20.8313 55.1617 20.3588C56.0193 20.0294 56.9468 19.924 57.8565 20.0525C58.28 20.0699 58.6931 20.1896 59.0603 20.4015C59.4275 20.6134 59.738 20.9111 59.9651 21.2691C60.1726 21.5677 60.3116 21.9084 60.3721 22.267C60.4326 22.6256 60.4131 22.9932 60.3151 23.3433C60.2474 23.7037 60.0806 24.038 59.8332 24.3086C59.5859 24.5792 59.2679 24.7754 58.9152 24.875C58.4232 25.0597 57.9006 25.1488 57.3753 25.1375C56.9002 25.1616 56.4242 25.1616 55.9491 25.1375C55.2657 25.043 54.5717 25.0578 53.893 25.1813C53.0847 25.4859 52.4281 26.0956 52.0643 26.8792C53.507 27.5273 54.8646 28.3504 56.1066 29.3298C57.3028 30.3134 58.3184 31.4981 59.1077 32.8307C60.1011 34.3774 60.6516 36.1669 60.6994 38.0047C60.7472 39.8425 60.2905 41.6583 59.3789 43.2546C57.629 46.5804 54.6104 49.1302 50.3232 50.904C49.4939 51.2574 48.64 51.5499 47.7683 51.7792C46.6039 52.126 45.417 52.3921 44.216 52.5756C43.1788 53.2241 42.2415 54.0201 41.4337 54.9387C40.7775 55.8139 40.5587 56.4441 40.8124 56.9255C41.0884 57.4921 41.5478 57.9486 42.1161 58.2208C43.3377 58.5428 44.6218 58.5428 45.8434 58.2208C47.7508 57.8269 49.7807 57.3981 51.9681 56.9605C53.2397 56.6221 55.1967 56.1582 57.839 55.5689L62.7212 54.3961C65.8325 53.5378 69.0843 53.3116 72.2844 53.7309C73.6756 53.9155 75.0065 54.414 76.1767 55.1888C77.3469 55.9636 78.3257 56.9944 79.039 58.2033C80.9902 61.4941 80.3865 64.8375 77.1754 68.2421C74.4543 71.2178 71.7157 73.3271 65.6435 76.4341C51.4606 83.6897 39.8587 79.4974 38.4413 76.5217C38.4413 76.5217 47.0683 82.8757 64.2611 74.3423C67.5905 72.7711 70.567 70.5411 73.0106 67.7869C75.1805 65.3363 75.793 63.3496 74.9005 61.7829C74.4434 61.0399 73.8288 60.4063 73.1001 59.9269C72.3714 59.4475 71.5464 59.134 70.6833 59.0085C68.0212 58.5386 65.2884 58.6581 62.6775 59.3586L52.8868 61.5204C52.8868 61.5204 44.0498 63.4371 39.3076 63.0608ZM32.8241 34.94C32.1566 37.5537 32.52 40.324 33.8391 42.6769C35.0986 45.3125 37.2189 47.4396 39.85 48.7072C41.3005 49.4306 42.8915 49.8282 44.5117 49.872C46.1318 49.9159 47.742 49.6049 49.2295 48.961C50.6259 48.4734 51.876 47.6396 52.8629 46.5376C53.8499 45.4356 54.5414 44.1013 54.8729 42.6594C55.4389 39.9986 54.9596 37.2218 53.5342 34.905C52.1797 32.4005 50.0225 30.4246 47.4095 29.2948C46.0325 28.6627 44.5413 28.3173 43.0267 28.2797C41.512 28.2421 40.0056 28.513 38.5988 29.076C35.5365 30.2663 33.6028 32.2093 32.8241 34.94Z" fill="#E11B22"/>
<path d="M164.294 36.1828V29.5837H167.225C167.679 29.5638 168.132 29.626 168.564 29.7674C168.873 29.8878 169.133 30.1101 169.299 30.3976C169.482 30.6978 169.576 31.0437 169.57 31.3953C169.576 31.6125 169.538 31.8286 169.46 32.0314C169.382 32.2341 169.265 32.4195 169.115 32.5769C168.732 32.9352 168.238 33.1515 167.715 33.1896C167.903 33.2792 168.079 33.3909 168.24 33.5221C168.519 33.781 168.763 34.0753 168.966 34.3974L170.104 36.1478H169.01L168.135 34.7825C167.873 34.3886 167.663 34.0823 167.505 33.9072C167.382 33.7372 167.231 33.5892 167.059 33.4696C166.936 33.388 166.8 33.3287 166.657 33.2946C166.497 33.2765 166.335 33.2765 166.175 33.2946H165.16V36.2178L164.294 36.1828ZM165.169 32.5069H167.05C167.367 32.5164 167.683 32.475 167.986 32.3843C168.197 32.3091 168.378 32.168 168.503 31.9817C168.617 31.8075 168.678 31.6037 168.678 31.3953C168.682 31.2496 168.653 31.1049 168.594 30.9717C168.535 30.8385 168.447 30.7201 168.336 30.6252C168.027 30.3962 167.644 30.2873 167.26 30.3188H165.169V32.5069Z" fill="#212529"/>
<path d="M161.888 32.892C161.89 34.2979 162.45 35.6456 163.444 36.6398C164.438 37.634 165.785 38.1935 167.19 38.1958C168.597 38.1958 169.947 37.6373 170.943 36.6429C171.938 35.6485 172.499 34.2994 172.501 32.892C172.501 32.1943 172.364 31.5035 172.097 30.8589C171.83 30.2144 171.439 29.6287 170.946 29.1354C170.453 28.6421 169.867 28.2507 169.223 27.9838C168.578 27.7168 167.888 27.5794 167.19 27.5794C165.783 27.5817 164.435 28.1425 163.441 29.1385C162.447 30.1346 161.888 31.4845 161.888 32.892ZM162.247 32.892C162.247 31.5797 162.767 30.321 163.694 29.3923C164.621 28.4635 165.878 27.9406 167.19 27.9382C168.503 27.9406 169.761 28.4632 170.69 29.3917C171.618 30.3202 172.14 31.5789 172.143 32.892C172.138 34.2035 171.614 35.46 170.687 36.3866C169.759 37.3132 168.502 37.8347 167.19 37.837C165.882 37.8323 164.628 37.3096 163.703 36.383C162.778 35.4563 162.258 34.2012 162.256 32.892H162.247Z" fill="#212529"/>
<path d="M82.6438 89.8862C81.8582 89.9205 81.0738 89.7947 80.3382 89.5163C79.6027 89.238 78.9315 88.813 78.3653 88.2671C77.1316 87.033 76.7642 85.3351 76.7642 82.9195C76.7642 80.9765 76.9129 78.7797 78.304 77.2918C78.8686 76.7079 79.5503 76.2501 80.3042 75.9484C81.0582 75.6467 81.8674 75.508 82.6788 75.5414H88.1647V76.4954H83.1425C82.3684 76.4322 81.5902 76.5495 80.8691 76.8381C80.1479 77.1266 79.5035 77.5785 78.9865 78.1583C77.9978 79.4274 77.9191 81.3091 77.9191 82.902C77.9191 84.031 77.9191 85.8165 78.864 87.1205C79.3423 87.7037 79.9512 88.1661 80.6413 88.4702C81.3313 88.7743 82.0833 88.9116 82.8363 88.871H88.3922V89.86L82.6438 89.8862Z" fill="#212529"/>
<path d="M90.7895 80.0925C91.857 79.051 93.4144 78.9022 94.8056 78.9022C96.1968 78.9022 97.7541 79.051 98.8128 80.0925C100.003 81.2653 100.169 83.1908 100.169 84.3986C100.169 86.753 99.5128 88.0833 98.8128 88.7747C97.6316 89.9475 95.768 90.0087 94.8056 90.0087C93.8431 90.0087 91.9795 89.9475 90.7895 88.7747C90.0983 88.0833 89.4421 86.753 89.4421 84.3986C89.4421 83.1908 89.5996 81.2653 90.7895 80.0925ZM91.4633 87.9695C91.918 88.3655 92.4496 88.6632 93.0247 88.8439C93.5999 89.0246 94.2062 89.0845 94.8056 89.0197C95.4036 89.0833 96.0082 89.0228 96.5818 88.8421C97.1553 88.6614 97.6855 88.3643 98.1392 87.9695C99.0141 86.9892 99.0141 85.3438 99.0141 84.4686C99.0141 83.5934 99.0141 81.8429 98.1392 80.8452C97.2642 79.8474 95.8118 79.8387 94.7881 79.8387C93.7644 79.8387 92.2682 79.9262 91.4282 80.8452C90.5883 81.7642 90.5533 83.5321 90.5533 84.4686C90.5533 85.4051 90.5621 86.998 91.4633 87.9958V87.9695Z" fill="#212529"/>
<path d="M101.805 80.4426C101.777 80.0895 101.863 79.7367 102.05 79.4361C102.184 79.2893 102.35 79.1757 102.535 79.1043C102.721 79.0328 102.92 79.0056 103.118 79.0248H107.003C107.455 78.9778 107.913 79.025 108.347 79.1636C108.78 79.3022 109.181 79.5291 109.522 79.8299C109.836 80.166 110.075 80.5638 110.226 80.9979C110.377 81.4319 110.435 81.8927 110.397 82.3506V89.8862H109.33V82.6219C109.408 81.9399 109.244 81.252 108.866 80.6789C108.651 80.4336 108.379 80.2441 108.074 80.1267C107.769 80.0093 107.441 79.9676 107.116 80.005H103.266C103.17 80.005 103.048 80.005 102.986 80.0837C102.937 80.1841 102.916 80.2961 102.925 80.4076V89.895H101.858L101.805 80.4426Z" fill="#212529"/>
<path d="M116.443 89.8862C115.518 90.0273 114.575 89.7978 113.818 89.2473C113.145 88.5909 113.083 87.4969 113.083 86.2366V79.9963H111.587V79.0248H113.083V75.5239H114.151V79.0248H117.143V79.9963H114.151V86.009C114.151 86.9367 114.09 88.1795 114.763 88.6347C115.37 88.893 116.034 88.9866 116.688 88.906H117.266V89.8687L116.443 89.8862Z" fill="#212529"/>
<path d="M123.81 79.0248C124.163 79.0169 124.514 79.0803 124.842 79.2111C125.169 79.342 125.467 79.5375 125.718 79.7862C126.196 80.4043 126.43 81.1771 126.374 81.9567V88.4508C126.399 88.6605 126.38 88.8731 126.318 89.075C126.256 89.2769 126.153 89.4637 126.015 89.6236C125.654 89.8708 125.216 89.9795 124.782 89.9299H120.608C119.915 89.9916 119.222 89.819 118.639 89.4398C117.764 88.6959 117.677 87.2256 117.677 86.5691C117.626 86.1037 117.678 85.6327 117.829 85.1895C117.98 84.7464 118.227 84.3419 118.552 84.0048C119.145 83.5908 119.86 83.3902 120.582 83.4358H125.289V81.7467C125.282 81.2866 125.139 80.8389 124.878 80.4601C124.734 80.2994 124.557 80.1722 124.359 80.0875C124.161 80.0028 123.947 79.9627 123.732 79.97H118.482V78.9985L123.81 79.0248ZM120.311 84.3548C120.084 84.3442 119.859 84.387 119.652 84.4797C119.445 84.5725 119.263 84.7126 119.121 84.8887C118.836 85.4003 118.714 85.9864 118.771 86.5691C118.713 87.2269 118.866 87.886 119.208 88.4508C119.341 88.6002 119.504 88.7197 119.687 88.8011C119.869 88.8826 120.067 88.9243 120.267 88.9235H124.642C124.808 88.9384 124.975 88.8951 125.114 88.8009C125.167 88.7568 125.207 88.6997 125.232 88.6354C125.256 88.571 125.264 88.5015 125.254 88.4334V84.3723L120.311 84.3548Z" fill="#212529"/>
<path d="M132.183 89.8862C131.582 89.9118 130.983 89.8015 130.43 89.5636C129.877 89.3257 129.385 88.9663 128.99 88.5121C128.115 87.4881 128.01 86.1928 128.01 84.5999C128.01 83.007 128.089 81.4053 129.235 80.2238C129.686 79.8025 130.218 79.4774 130.799 79.2682C131.379 79.0591 131.996 78.9703 132.612 79.0072H136.278V79.9962H132.49C131.791 79.9342 131.093 80.1216 130.52 80.5254C129.947 80.9292 129.535 81.5231 129.357 82.2018C129.224 83.0412 129.156 83.8899 129.156 84.7399C129.142 85.6088 129.266 86.4744 129.524 87.3043C130.162 88.7397 131.737 88.9235 132.717 88.9235H136.515V89.8862H132.183Z" fill="#212529"/>
<path d="M142.202 89.8862C141.274 89.8862 140.251 89.8862 139.577 89.2473C138.903 88.6084 138.842 87.4969 138.842 86.2366V79.9963H137.39V79.0248H138.886V75.5239H139.953V79.0248H142.937V79.9963H139.953V86.009C139.953 86.9367 139.892 88.1795 140.566 88.6347C141.172 88.893 141.836 88.9866 142.491 88.906H143.059V89.8687L142.202 89.8862Z" fill="#212529"/>
<path d="M154.486 89.8862C153.699 89.9196 152.914 89.7935 152.177 89.5152C151.44 89.2369 150.767 88.8124 150.199 88.2671C148.974 87.033 148.606 85.3351 148.606 82.9195C148.606 80.9765 148.746 78.7797 150.138 77.2918C150.703 76.7097 151.385 76.253 152.139 75.9515C152.893 75.6499 153.701 75.5102 154.512 75.5413H159.998V76.4954H154.976C154.202 76.4336 153.424 76.5515 152.703 76.84C151.982 77.1284 151.338 77.5796 150.82 78.1583C149.84 79.4274 149.761 81.3091 149.761 82.902C149.761 84.031 149.761 85.8164 150.698 87.1205C151.176 87.7032 151.785 88.1651 152.475 88.4692C153.165 88.7732 153.917 88.9109 154.67 88.871H160.217V89.86L154.486 89.8862Z" fill="#212529"/>
<path d="M165.029 89.8862C164.479 89.9104 163.932 89.8022 163.432 89.5707C162.933 89.3392 162.496 88.9913 162.159 88.5559C161.284 87.4707 161.284 86.0966 161.284 84.4949C161.284 82.8933 161.372 81.1428 162.737 79.9963C163.725 79.2881 164.928 78.9448 166.14 79.0248C167.1 78.996 168.051 79.2097 168.905 79.6462C169.481 80.0074 169.948 80.5181 170.256 81.1239C170.564 81.7297 170.702 82.4077 170.655 83.0858C170.676 83.3391 170.646 83.5938 170.568 83.8356C170.49 84.0774 170.365 84.3014 170.2 84.4949C169.869 84.7367 169.463 84.8544 169.054 84.8275H162.439C162.411 85.5674 162.473 86.308 162.623 87.033C162.754 87.5759 163.064 88.0585 163.505 88.4018C163.945 88.7452 164.489 88.9291 165.047 88.9235H170.366V89.8862H165.029ZM169.036 83.8647C169.509 83.8647 169.491 83.2871 169.491 83.147C169.523 82.3427 169.259 81.5547 168.748 80.9328C168.386 80.5693 167.945 80.2953 167.459 80.1327C166.973 79.9701 166.455 79.9234 165.948 79.9963C164.863 79.9963 163.691 79.9963 162.938 81.3003C162.541 82.0939 162.362 82.9792 162.422 83.8647H169.036Z" fill="#212529"/>
<path d="M172.274 80.4426C172.246 80.0895 172.332 79.7367 172.519 79.4361C172.653 79.2893 172.819 79.1757 173.004 79.1043C173.189 79.0328 173.389 79.0056 173.586 79.0248H177.471C177.924 78.9778 178.381 79.025 178.815 79.1636C179.249 79.3022 179.649 79.5291 179.991 79.8299C180.302 80.1672 180.541 80.5652 180.691 80.9989C180.842 81.4327 180.901 81.8928 180.866 82.3506V89.8862H179.798V82.6219C179.877 81.9399 179.713 81.252 179.335 80.6789C179.119 80.4336 178.847 80.2441 178.543 80.1267C178.238 80.0093 177.909 79.9676 177.585 80.005H173.735C173.639 80.005 173.516 80.005 173.455 80.0837C173.405 80.1841 173.384 80.2961 173.394 80.4076V89.895H172.326L172.274 80.4426Z" fill="#212529"/>
<path d="M186.912 89.8862C185.987 90.0273 185.043 89.7978 184.287 89.2473C183.613 88.5909 183.552 87.4969 183.552 86.2366V79.9963H182.056V79.0248H183.552V75.5239H184.637V79.0248H187.629V79.9963H184.637V86.009C184.637 86.9367 184.576 88.1795 185.249 88.6347C185.856 88.893 186.52 88.9866 187.174 88.906H187.752V89.8687L186.912 89.8862Z" fill="#212529"/>
<path d="M191.89 89.8862C191.34 89.9104 190.793 89.8022 190.293 89.5707C189.794 89.3392 189.357 88.9913 189.02 88.5559C188.146 87.4707 188.146 86.0966 188.146 84.4949C188.146 82.8933 188.233 81.1428 189.598 79.9963C190.586 79.2881 191.789 78.9448 193.001 79.0248C193.961 78.996 194.912 79.2097 195.766 79.6462C196.342 80.0074 196.809 80.5181 197.117 81.1239C197.425 81.7297 197.563 82.4077 197.516 83.0858C197.537 83.3391 197.507 83.5938 197.429 83.8356C197.351 84.0774 197.226 84.3014 197.061 84.4949C196.73 84.7367 196.324 84.8544 195.915 84.8275H189.3C189.272 85.5674 189.334 86.308 189.484 87.033C189.615 87.5759 189.926 88.0585 190.366 88.4018C190.806 88.7452 191.35 88.9291 191.908 88.9235H197.228V89.8862H191.89ZM195.898 83.8647C196.37 83.8647 196.353 83.2871 196.353 83.147C196.385 82.3427 196.12 81.5547 195.609 80.9328C195.247 80.5698 194.806 80.2963 194.32 80.1337C193.834 79.9712 193.316 79.9241 192.809 79.9963C191.724 79.9963 190.552 79.9963 189.799 81.3003C189.402 82.0939 189.223 82.9792 189.283 83.8647H195.898Z" fill="#212529"/>
<path d="M199.135 82.7532C199.079 82.2376 199.136 81.716 199.303 81.2248C199.469 80.7336 199.74 80.2845 200.097 79.9087C200.455 79.5963 200.871 79.358 201.322 79.2078C201.773 79.0575 202.248 78.9983 202.722 79.0335H203.457V79.9962H202.801C202.42 79.9624 202.036 80.0122 201.676 80.1422C201.317 80.2722 200.99 80.4793 200.718 80.7489C200.285 81.4144 200.091 82.2076 200.167 82.9982V89.8862H199.1L199.135 82.7532Z" fill="#212529"/>
</g>
<defs>
<clipPath id="clip0_612_227">
<rect width="178" height="70" fill="white" transform="translate(25.9033 20)"/>
</clipPath>
</defs>
</svg>
