<?xml version="1.0" encoding="utf-8"?>
<!-- Generator: Adobe Illustrator 26.0.0, SVG Export Plug-In . SVG Version: 6.00 Build 0)  -->
<svg version="1.1" id="Layer_1" xmlns="http://www.w3.org/2000/svg" xmlns:xlink="http://www.w3.org/1999/xlink" x="0px" y="0px"
	 viewBox="0 0 114.1 60" style="enable-background:new 0 0 114.1 60;" xml:space="preserve">
<style type="text/css">
	.st0{fill:#405756;}
	.st1{fill:#69B884;stroke:#FFFFFF;stroke-miterlimit:10;}
	.st2{fill:#FDCE55;stroke:#FFFFFF;stroke-miterlimit:10;}
</style>
<g id="OBJECTS">
	<g>
		<path class="st0" d="M112.4,1.3v56.8H95.5V1.3H112.4z"/>
		<path class="st1" d="M61.8,17.7v40.5H44.9V17.8V1.3h22c9.7,0,17.2,2.2,22.7,6.6c6.5,5.2,9.7,12.4,9.7,21.4
			c0,8.6-2.8,15.6-8.3,21.1c-5.6,5.4-12.7,8.2-21.4,8.2c-1,0-2.7-0.1-5-0.2V41.7h2.7c9.8,0,14.8-4.1,14.8-12.4
			c0-7.7-4.8-11.6-14.5-11.6H61.8z"/>
		<path class="st2" d="M51.1,1.3L26.4,58.2L1.8,1.3h19.6l5.2,16.8l5.7-16.8C32.3,1.3,51.1,1.3,51.1,1.3z"/>
	</g>
</g>
</svg>
