<svg xmlns="http://www.w3.org/2000/svg" viewBox="0 0 2255.08 893.08"><defs><style>.cls-1{fill:#0081c8;}.cls-2{fill:#00a774;}.cls-3{fill:#27aae1;}.cls-4{fill:#ee417e;}.cls-5{fill:#39b54a;}.cls-6{fill:#f7941d;}.cls-7{fill:#231f20;}</style></defs><g id="Layer_2" data-name="Layer 2"><g id="Layer_1-2" data-name="Layer 1"><path class="cls-1" d="M840.3,635.27s17.55-96.08-55.81-96.08-80.55,86.18-80.55,86.18V773.43H647.69V398.56h3.44a157.19,157.19,0,0,0,52.81,17.84V529.06s22-36,85.5-36,98.11,43.84,98.11,96.4Z"/><polygon class="cls-1" points="1188.31 497.56 1188.31 610.97 1132.81 666.47 1132.81 497.56 1188.31 497.56"/><path class="cls-2" d="M999.15,621.32s-19.35,109.13,63,109.13c40.95,0,68.4-25.43,191.26-155.48V399.46h53.1v127.8h7.2s22-34.2,89.1-34.2S1541,544.29,1541,629.61s-65.25,149.22-136.81,149.22-90.9-35.55-90.9-35.55h-8.1v30.15h-50.4V673.07l48.37-48.37S1304.41,732,1398.32,732s90.91-105.76,90.91-105.76-6.75-87.75-90-87.75c-111.15,0-205.66,240.31-335.26,240.31-84.16,0-113-57.3-116.11-112.36Z"/><polygon class="cls-1" points="999.15 496.21 999.15 589.46 899.25 687.47 896.55 773.43 840.29 773.43 840.29 670.37 943.35 567.32 943.35 496.21 999.15 496.21"/><path class="cls-3" d="M2014.49,269s33.32,86.23,140.06,147.56c23.81,12.48,43.38,17.26,39,49.21s-8.36,121.49-71.87,98.21S1936.13,457.9,1886.37,376.19c-16.52-22.46-48.2-58.74-4.28-80.95S2000.92,223.77,2014.49,269Z"/><path class="cls-4" d="M2180.78,648.7s-85.92,34.12-146.25,141.43c-12.25,23.93-16.85,43.54-48.84,39.51s-121.56-7.23-98.88-71,104.38-186.57,185.62-237.1c22.31-16.72,58.29-48.74,80.91-5S2225.92,634.71,2180.78,648.7Z"/><path class="cls-5" d="M1796.12,813s-32.83-86.42-139.21-148.36c-23.74-12.61-43.29-17.51-38.77-49.43s9.06-121.44,72.43-97.8,185,107.18,234.28,189.17c16.39,22.55,47.86,59,3.81,81S1809.43,858.37,1796.12,813Z"/><path class="cls-6" d="M1633.92,434.16s85.83-34.34,145.91-141.78c12.2-24,16.75-43.59,48.75-39.63s121.57,6.94,99.05,70.72S1823.69,510.29,1742.57,561c-22.26,16.78-58.17,48.89-80.89,5.23S1588.82,448.26,1633.92,434.16Z"/><circle class="cls-3" cx="2157.55" cy="276.83" r="79.55"/><circle class="cls-4" cx="2175.51" cy="791.18" r="79.55"/><circle class="cls-6" cx="1639.75" cy="298.59" r="79.55"/><circle class="cls-5" cx="1659.21" cy="813.51" r="79.55"/><path class="cls-7" d="M794.07,193l31.09-31.09a137.83,137.83,0,0,0-194.92,0c-53.74,53.74-53.74,141.18,0,194.92a137.83,137.83,0,0,0,194.92,0l-31.09-31.09a93.86,93.86,0,1,1,0-132.74Z"/><path class="cls-7" d="M135,0C60.55,0,0,60.55,0,135S60.55,270,135,270V226a91,91,0,1,1,91-91h44C270,60.55,209.42,0,135,0Z"/><path class="cls-7" d="M135,128.59v44a91,91,0,1,1-91,91H0c0,74.43,60.55,135,135,135s135-60.56,135-135S209.42,128.59,135,128.59Z"/><path class="cls-7" d="M428.7,120.31c-76.71,0-139.12,62.41-139.12,139.12S352,398.56,428.7,398.56s139.12-62.41,139.12-139.13S505.42,120.31,428.7,120.31Zm0,234.27a95.15,95.15,0,1,1,95.15-95.15A95.25,95.25,0,0,1,428.7,354.58Z"/><path class="cls-7" d="M900.7,143.28V397.15h-44V143.55a31.83,31.83,0,0,0,44-.27Z"/><rect class="cls-7" x="1253.54" y="22.2" width="53.06" height="376.35"/><path class="cls-7" d="M1170.21,120.31v37.76a138.58,138.58,0,0,0-95.15-37.76c-76.71,0-139.12,62.41-139.12,139.12s62.41,139.13,139.12,139.13a138.58,138.58,0,0,0,95.15-37.76v37.76h44V120.31Zm-95.15,234.27a95.15,95.15,0,1,1,95.15-95.15A95.26,95.26,0,0,1,1075.06,354.58Z"/><circle class="cls-7" cx="878.57" cy="116.35" r="21.88"/></g></g></svg>